<mxfile host="app.diagrams.net" modified="2024-01-25T14:49:55.183Z" agent="Mozilla/5.0 (Windows NT 10.0; Win64; x64) AppleWebKit/537.36 (KHTML, like Gecko) Chrome/120.0.0.0 Safari/537.36" version="23.0.1" etag="-LzLdRapobYOszDQHcql" type="github">
  <diagram name="Page-1" id="XnRZ4HMNtZHtYVg6nWbb">
    <mxGraphModel>
      <root>
        <mxCell id="0" />
        <mxCell id="1" parent="0" />
      </root>
    </mxGraphModel>
  </diagram>
</mxfile>
